PathFileType	4	(X/Y/Z)	 2.5Hzlow3min.trc
DataRate	CameraRate	NumFrames	NumMarkers	Units	OrigDataRate	OrigDataStartFrame	OrigNumFrames
200	200	9	43	m	200	1	1000
Frame#	Time	C7			LSH			RSH			MAN			RASI			LASI			HIPR			HIPL			RPSI			LPSI			COX			RTHI1			RTHI2			RTHI3			RTHI4			RLKN			RMKN			RSHA1			RSHA2			RSHA3			RSHA4			RLMAL			RMMAL			RHEEL			RMET5			RMET1			RTOE			LTHI1			LTHI2			LTHI3			LTHI4			LLKN			LMKN			LSHA1			LSHA2			LSHA3			LSHA4			LLMAL			LMMAL			LHEEL			LMET5			LMET1			LTOE			
		X1	Y1	Z1	X2	Y2	Z2	X3	Y3	Z3	X4	Y4	Z4	X5	Y5	Z5	X6	Y6	Z6	X7	Y7	Z7	X8	Y8	Z8	X9	Y9	Z9	X10	Y10	Z10	X11	Y11	Z11	X12	Y12	Z12	X13	Y13	Z13	X14	Y14	Z14	X15	Y15	Z15	X16	Y16	Z16	X17	Y17	Z17	X18	Y18	Z18	X19	Y19	Z19	X20	Y20	Z20	X21	Y21	Z21	X22	Y22	Z22	X23	Y23	Z23	X24	Y24	Z24	X25	Y25	Z25	X26	Y26	Z26	X27	Y27	Z27	X28	Y28	Z28	X29	Y29	Z29	X30	Y30	Z30	X31	Y31	Z31	X32	Y32	Z32	X33	Y33	Z33	X34	Y34	Z34	X35	Y35	Z35	X36	Y36	Z36	X37	Y37	Z37	X38	Y38	Z38	X39	Y39	Z39	X40	Y40	Z40	X41	Y41	Z41	X42	Y42	Z42	X43	Y43	Z43	
1	0.0050	-0.249286	1.580418	-0.523394	-0.168359	1.555492	-0.720368	-0.147232	1.561647	-0.331653	-0.109356	1.528304	-0.527689	-0.064580	1.077787	-0.397509	-0.071410	1.080785	-0.639851	-0.145650	1.132552	-0.358163	-0.142182	1.122395	-0.675573	-0.244707	1.123931	-0.458955	-0.249469	1.122427	-0.558513	-0.251186	1.122584	-0.507873	-0.166960	0.815133	-0.331354	-0.155705	0.755772	-0.332256	-0.092208	0.764125	-0.321454	-0.094733	0.825753	-0.319269	-0.139361	0.558422	-0.342074	-0.108722	0.532247	-0.455106	-0.223222	0.380350	-0.322982	-0.236959	0.340628	-0.331204	-0.170561	0.366409	-0.322833	-0.177552	0.327249	-0.325780	-0.272833	0.165492	-0.351907	-0.229821	0.159870	-0.428389	-0.308426	0.166900	-0.417337	-0.201765	0.063155	-0.317445	-0.138316	0.063441	-0.370770	-0.119780	0.052863	-0.366877	-0.175224	0.833073	-0.703654	-0.164517	0.772558	-0.704973	-0.101105	0.777741	-0.718339	-0.104550	0.837773	-0.719423	-0.146330	0.564295	-0.697909	-0.126897	0.548664	-0.581335	-0.234485	0.383284	-0.706144	-0.244745	0.344454	-0.699216	-0.185197	0.332791	-0.706035	-0.181436	0.375258	-0.712735	-0.267743	0.169815	-0.691282	-0.226453	0.169514	-0.612691	-0.308507	0.178899	-0.627824	-0.202055	0.054290	-0.701600	-0.149500	0.059441	-0.637352	-0.128560	0.050124	-0.650481	
2	0.0100	-0.249285	1.580660	-0.523277	-0.168350	1.555488	-0.720373	-0.147048	1.561832	-0.331385	-0.109334	1.528613	-0.527642	-0.064706	1.077846	-0.397131	-0.071568	1.080925	-0.639646	-0.145936	1.132408	-0.357757	-0.142503	1.122637	-0.675273	-0.244767	1.124072	-0.458601	-0.249611	1.122684	-0.558120	-0.251288	1.122783	-0.507475	-0.166197	0.815199	-0.330926	-0.154825	0.755927	-0.332012	-0.091277	0.764350	-0.321753	-0.093891	0.825962	-0.319509	-0.138507	0.558732	-0.341936	-0.108267	0.532612	-0.455000	-0.223209	0.381035	-0.322910	-0.236934	0.341300	-0.331189	-0.170484	0.366886	-0.322693	-0.177656	0.327742	-0.325658	-0.273249	0.166285	-0.351729	-0.230215	0.160276	-0.428167	-0.308953	0.167280	-0.417377	-0.202316	0.064582	-0.316460	-0.138945	0.064181	-0.369697	-0.120432	0.053659	-0.365611	-0.174797	0.833325	-0.703384	-0.163946	0.772830	-0.704814	-0.100543	0.778066	-0.717984	-0.104091	0.838098	-0.718970	-0.145396	0.564503	-0.697807	-0.125718	0.548859	-0.581371	-0.234481	0.383957	-0.705710	-0.244960	0.345241	-0.698608	-0.185466	0.333216	-0.705663	-0.181534	0.375744	-0.712329	-0.268772	0.170379	-0.690448	-0.227176	0.170133	-0.612052	-0.309517	0.179298	-0.626833	-0.202513	0.055582	-0.701340	-0.149580	0.060820	-0.637286	-0.128514	0.051392	-0.650350	
3	0.0150	-0.249214	1.580695	-0.523152	-0.168309	1.555200	-0.720386	-0.146914	1.561722	-0.331155	-0.109246	1.528615	-0.527579	-0.064840	1.077599	-0.396762	-0.071786	1.080736	-0.639495	-0.146252	1.131933	-0.357332	-0.142956	1.122537	-0.675012	-0.244857	1.123847	-0.458204	-0.249809	1.122552	-0.557683	-0.251442	1.122596	-0.507042	-0.165350	0.814992	-0.330463	-0.153868	0.755802	-0.331705	-0.090270	0.764304	-0.322042	-0.093003	0.825916	-0.319781	-0.137637	0.558758	-0.341767	-0.107731	0.532674	-0.454848	-0.223164	0.381415	-0.322885	-0.236983	0.341778	-0.331176	-0.170481	0.367094	-0.322502	-0.177819	0.328009	-0.325523	-0.273689	0.166782	-0.351524	-0.230794	0.160602	-0.428002	-0.309698	0.167466	-0.417234	-0.202715	0.065623	-0.315871	-0.139575	0.064785	-0.369204	-0.121058	0.054324	-0.365059	-0.174241	0.833208	-0.703236	-0.163247	0.772745	-0.704736	-0.099767	0.778139	-0.717562	-0.103475	0.838134	-0.718488	-0.144437	0.564455	-0.697738	-0.124485	0.548756	-0.581444	-0.234592	0.384424	-0.705245	-0.245240	0.345791	-0.697959	-0.185812	0.333393	-0.705296	-0.181669	0.376037	-0.711977	-0.269830	0.170725	-0.689585	-0.227988	0.170612	-0.611378	-0.310600	0.179471	-0.625888	-0.203020	0.056583	-0.700888	-0.149816	0.061998	-0.636962	-0.128632	0.052514	-0.649960	
4	0.0200	-0.249126	1.580666	-0.523025	-0.168258	1.554836	-0.720398	-0.146760	1.561522	-0.330919	-0.109146	1.528538	-0.527515	-0.064978	1.077277	-0.396396	-0.072021	1.080467	-0.639357	-0.146578	1.131382	-0.356907	-0.143423	1.122333	-0.674753	-0.244960	1.123532	-0.457805	-0.250018	1.122317	-0.557236	-0.251612	1.122313	-0.506611	-0.164486	0.814721	-0.329999	-0.152893	0.755607	-0.331390	-0.089244	0.764195	-0.322328	-0.092102	0.825803	-0.320049	-0.136753	0.558704	-0.341592	-0.107176	0.532656	-0.454689	-0.223132	0.381733	-0.322865	-0.237044	0.342182	-0.331156	-0.170494	0.367224	-0.322320	-0.177989	0.328193	-0.325388	-0.274135	0.167221	-0.351296	-0.231412	0.160877	-0.427849	-0.310489	0.167616	-0.417056	-0.203070	0.066571	-0.315378	-0.140193	0.065347	-0.368857	-0.121667	0.054951	-0.364677	-0.173654	0.833000	-0.703103	-0.162496	0.772568	-0.704662	-0.098946	0.778132	-0.717126	-0.102828	0.838096	-0.717997	-0.143473	0.564330	-0.697673	-0.123244	0.548583	-0.581518	-0.234710	0.384814	-0.704750	-0.245524	0.346269	-0.697294	-0.186176	0.333502	-0.704931	-0.181820	0.376246	-0.711632	-0.270891	0.171012	-0.688727	-0.228823	0.171033	-0.610693	-0.311709	0.179592	-0.624961	-0.203537	0.057515	-0.700389	-0.150092	0.063127	-0.636582	-0.128790	0.053591	-0.649515	
5	0.0250	-0.248984	1.580454	-0.522892	-0.168180	1.554238	-0.720414	-0.146602	1.561066	-0.330694	-0.108997	1.528210	-0.527442	-0.065127	1.076719	-0.396040	-0.072300	1.079944	-0.639257	-0.146929	1.130582	-0.356482	-0.143966	1.121831	-0.674515	-0.245094	1.122930	-0.457387	-0.250265	1.121771	-0.556763	-0.251829	1.121729	-0.506167	-0.163564	0.814240	-0.329520	-0.151863	0.755188	-0.331037	-0.088167	0.763876	-0.322606	-0.091168	0.825482	-0.320328	-0.135839	0.558415	-0.341396	-0.106560	0.532394	-0.454503	-0.223105	0.381826	-0.322870	-0.237144	0.342393	-0.331133	-0.170561	0.367128	-0.322137	-0.178200	0.328165	-0.325250	-0.274597	0.167439	-0.351038	-0.232168	0.161043	-0.427739	-0.311425	0.167614	-0.416731	-0.203296	0.067221	-0.315189	-0.140805	0.065781	-0.368969	-0.122248	0.055452	-0.364841	-0.172974	0.832506	-0.703047	-0.161627	0.772100	-0.704620	-0.097969	0.777905	-0.716649	-0.102073	0.837831	-0.717485	-0.142488	0.563989	-0.697625	-0.121972	0.548180	-0.581607	-0.234876	0.385007	-0.704199	-0.245838	0.346541	-0.696599	-0.186585	0.333396	-0.704567	-0.182003	0.376246	-0.711314	-0.271964	0.171128	-0.687871	-0.229731	0.171313	-0.609977	-0.312881	0.179540	-0.624074	-0.204086	0.058222	-0.699742	-0.150486	0.064094	-0.636008	-0.129073	0.054540	-0.648878	
6	0.0300	-0.248791	1.580062	-0.522747	-0.168070	1.553432	-0.720424	-0.146381	1.560370	-0.330458	-0.108813	1.527651	-0.527364	-0.065288	1.075963	-0.395697	-0.072620	1.079212	-0.639183	-0.147289	1.129593	-0.356055	-0.144546	1.121050	-0.674282	-0.245260	1.122065	-0.456968	-0.250543	1.120955	-0.556268	-0.252091	1.120869	-0.505715	-0.162602	0.813573	-0.329038	-0.150795	0.754576	-0.330657	-0.087052	0.763376	-0.322872	-0.090199	0.824980	-0.320591	-0.134888	0.557911	-0.341183	-0.105904	0.531909	-0.454300	-0.223105	0.381743	-0.322873	-0.237263	0.342402	-0.331106	-0.170614	0.366836	-0.321954	-0.178383	0.327929	-0.325103	-0.275064	0.167469	-0.350737	-0.233032	0.161070	-0.427669	-0.312470	0.167491	-0.416304	-0.203402	0.067627	-0.315246	-0.141398	0.066085	-0.369471	-0.122799	0.055823	-0.365453	-0.172213	0.831744	-0.703024	-0.160627	0.771383	-0.704572	-0.096883	0.777457	-0.716143	-0.101239	0.837352	-0.716953	-0.141491	0.563431	-0.697583	-0.120681	0.547588	-0.581693	-0.235026	0.384982	-0.703553	-0.246155	0.346605	-0.695880	-0.187015	0.333094	-0.704207	-0.182205	0.375989	-0.710996	-0.273033	0.171095	-0.687048	-0.230702	0.171434	-0.609227	-0.314110	0.179328	-0.623220	-0.204652	0.058746	-0.698971	-0.150980	0.064918	-0.635280	-0.129457	0.055373	-0.648086	
7	0.0350	-0.248550	1.579456	-0.522600	-0.167927	1.552383	-0.720432	-0.146113	1.559406	-0.330224	-0.108592	1.526830	-0.527283	-0.065468	1.074982	-0.395367	-0.072990	1.078239	-0.639138	-0.147659	1.128381	-0.355628	-0.145178	1.119972	-0.674063	-0.245465	1.120921	-0.456541	-0.250858	1.119834	-0.555761	-0.252397	1.119709	-0.505267	-0.161603	0.812698	-0.328561	-0.149690	0.753739	-0.330257	-0.085905	0.762664	-0.323113	-0.089209	0.824267	-0.320837	-0.133883	0.557172	-0.340960	-0.105205	0.531181	-0.454095	-0.223094	0.381450	-0.322866	-0.237389	0.342186	-0.331068	-0.170684	0.366299	-0.321793	-0.178579	0.327439	-0.324963	-0.275527	0.167281	-0.350407	-0.234011	0.160962	-0.427651	-0.313623	0.167208	-0.415756	-0.203377	0.067752	-0.315568	-0.141981	0.066225	-0.370390	-0.123319	0.056029	-0.366552	-0.171381	0.830706	-0.703033	-0.159521	0.770388	-0.704540	-0.095698	0.776775	-0.715611	-0.100326	0.836631	-0.716404	-0.140464	0.562637	-0.697546	-0.119371	0.546767	-0.581777	-0.235164	0.384731	-0.702882	-0.246466	0.346439	-0.695151	-0.187455	0.332558	-0.703838	-0.182405	0.375458	-0.710672	-0.274105	0.170877	-0.686238	-0.231750	0.171377	-0.608443	-0.315411	0.178945	-0.622429	-0.205233	0.059065	-0.698085	-0.151573	0.065568	-0.634387	-0.129943	0.056052	-0.647128	
8	0.0400	-0.248266	1.578628	-0.522457	-0.167748	1.551093	-0.720436	-0.145786	1.558173	-0.329995	-0.108339	1.525740	-0.527205	-0.065662	1.073789	-0.395060	-0.073399	1.077037	-0.639106	-0.148025	1.126969	-0.355208	-0.145838	1.118616	-0.673859	-0.245708	1.119507	-0.456112	-0.251210	1.118419	-0.555262	-0.252752	1.118272	-0.504824	-0.160585	0.811610	-0.328094	-0.148559	0.752681	-0.329848	-0.084742	0.761746	-0.323326	-0.088204	0.823347	-0.321060	-0.132819	0.556205	-0.340734	-0.104484	0.530215	-0.453904	-0.223051	0.380941	-0.322835	-0.237492	0.341745	-0.331012	-0.170727	0.365526	-0.321665	-0.178756	0.326705	-0.324841	-0.275977	0.166887	-0.350059	-0.235094	0.160689	-0.427678	-0.314839	0.166756	-0.415089	-0.203230	0.067617	-0.316121	-0.142562	0.066177	-0.371665	-0.123821	0.056048	-0.368067	-0.170497	0.829409	-0.703059	-0.158336	0.769136	-0.704506	-0.094451	0.775861	-0.715062	-0.099360	0.835674	-0.715840	-0.139401	0.561616	-0.697508	-0.118054	0.545716	-0.581845	-0.235260	0.384249	-0.702206	-0.246753	0.346041	-0.694429	-0.187870	0.331789	-0.703448	-0.182578	0.374660	-0.710326	-0.275171	0.170475	-0.685432	-0.232866	0.171138	-0.607623	-0.316777	0.178384	-0.621696	-0.205817	0.059201	-0.697121	-0.152249	0.066045	-0.633358	-0.130501	0.056573	-0.646010	
9	0.0450	-0.247937	1.577569	-0.522311	-0.167529	1.549556	-0.720432	-0.145398	1.556685	-0.329773	-0.108057	1.524383	-0.527130	-0.065873	1.072389	-0.394781	-0.073847	1.075619	-0.639080	-0.148375	1.125367	-0.354797	-0.146529	1.116995	-0.673672	-0.245990	1.117836	-0.455685	-0.251599	1.116736	-0.554777	-0.253149	1.116557	-0.504378	-0.159560	0.810308	-0.327649	-0.147420	0.751411	-0.329435	-0.083579	0.760623	-0.323505	-0.087194	0.822222	-0.321255	-0.131694	0.555005	-0.340510	-0.103755	0.529023	-0.453742	-0.222926	0.380214	-0.322730	-0.237539	0.341080	-0.330923	-0.170665	0.364522	-0.321540	-0.178884	0.325732	-0.324741	-0.276398	0.166261	-0.349724	-0.236261	0.160246	-0.427752	-0.316082	0.166125	-0.414305	-0.202987	0.067235	-0.316862	-0.143150	0.065922	-0.373237	-0.124324	0.055847	-0.369923	-0.169582	0.827858	-0.703089	-0.157104	0.767636	-0.704459	-0.093177	0.774714	-0.714506	-0.098363	0.834481	-0.715265	-0.138295	0.560357	-0.697459	-0.116738	0.544448	-0.581886	-0.235279	0.383529	-0.701532	-0.246994	0.345409	-0.693746	-0.188232	0.330780	-0.703032	-0.182697	0.373579	-0.709944	-0.276228	0.169895	-0.684653	-0.234046	0.170709	-0.606778	-0.318196	0.177644	-0.621017	-0.206388	0.059163	-0.696102	-0.152990	0.066329	-0.632214	-0.131116	0.056931	-0.644757	
